<svg width="25" height="25" viewBox="0 0 25 25" fill="none" xmlns="http://www.w3.org/2000/svg">
<path d="M0 21.1666V18.8333H2.33333V10.6666C2.33333 9.0527 2.81944 7.61867 3.79167 6.3645C4.76389 5.11034 6.02778 4.28881 7.58333 3.89992V3.08325C7.58333 2.59714 7.75347 2.18395 8.09375 1.84367C8.43403 1.50339 8.84722 1.33325 9.33333 1.33325C9.81944 1.33325 10.2326 1.50339 10.5729 1.84367C10.9132 2.18395 11.0833 2.59714 11.0833 3.08325V3.89992C12.6389 4.28881 13.9028 5.11034 14.875 6.3645C15.8472 7.61867 16.3333 9.0527 16.3333 10.6666V18.8333H18.6667V21.1666H0ZM9.33333 24.6666C8.69167 24.6666 8.14236 24.4381 7.68542 23.9812C7.22847 23.5242 7 22.9749 7 22.3333H11.6667C11.6667 22.9749 11.4382 23.5242 10.9812 23.9812C10.5243 24.4381 9.975 24.6666 9.33333 24.6666ZM4.66667 18.8333H14V10.6666C14 9.38325 13.5431 8.28464 12.6292 7.37075C11.7153 6.45686 10.6167 5.99992 9.33333 5.99992C8.05 5.99992 6.95139 6.45686 6.0375 7.37075C5.12361 8.28464 4.66667 9.38325 4.66667 10.6666V18.8333Z" fill="#70534F"/>
<path d="M24.3333 6.5C24.3333 10.0899 21.4232 13 17.8333 13C14.2435 13 11.3333 10.0899 11.3333 6.5C11.3333 2.91015 14.2435 0 17.8333 0C21.4232 0 24.3333 2.91015 24.3333 6.5Z" fill="#D46868"/>
<path d="M18.4353 4.60519V9.85742H17.63V5.40318H17.601L16.346 6.22293V5.46122L17.6518 4.60519H18.4353Z" fill="white"/>
</svg>
