<svg width="23" height="23" viewBox="0 0 23 23" fill="none" xmlns="http://www.w3.org/2000/svg">
<g clip-path="url(#clip0_505_858)">
<path d="M10.638 3.6415C7.18797 4.02483 4.21713 6.70817 3.73796 10.1582C3.45046 11.8832 3.73796 13.5123 4.4088 14.854C4.60046 15.1415 4.60046 15.5248 4.50463 15.8123C4.31296 16.4832 4.02546 17.729 3.8338 18.5915C3.73796 18.9748 4.02546 19.2623 4.4088 19.1665L7.18796 18.4957C7.5713 18.3998 7.8588 18.4957 8.1463 18.5915C9.48796 19.2623 11.1171 19.5498 12.8421 19.2623C16.2921 18.6873 18.9755 15.8123 19.3588 12.3623C19.9338 7.28316 15.7171 3.0665 10.638 3.6415Z" stroke="#7B7B7B" stroke-width="1.5" stroke-miterlimit="10" stroke-linecap="round" stroke-linejoin="round"/>
</g>
<defs>
<clipPath id="clip0_505_858">
<rect width="23" height="23" fill="white"/>
</clipPath>
</defs>
</svg>
