<svg width="27" height="29" viewBox="0 0 27 29" fill="none" xmlns="http://www.w3.org/2000/svg">
<g filter="url(#filter0_f_1_88)">
<path d="M0.753082 15.0859C0.766187 17.0962 1.32705 19.1704 2.176 20.8448V20.8564C2.78941 22.0724 3.62776 23.0329 4.58263 23.9847L10.3498 21.8354C9.25868 21.2693 9.09219 20.9224 8.31004 20.2894C7.51075 19.4663 6.91504 18.5212 6.54404 17.4131H6.5291L6.54404 17.4016C6.29998 16.6698 6.2759 15.8931 6.2669 15.0859H0.753082Z" fill="url(#paint0_radial_1_88)"/>
</g>
<g filter="url(#filter1_f_1_88)">
<path d="M13.5551 2.28876C12.9851 4.33414 13.203 6.32231 13.5551 7.47912C14.2134 7.47962 14.8475 7.55976 15.4487 7.71942C16.8271 8.08543 17.8021 8.80632 18.3995 9.37652L22.0967 5.67855C19.9065 3.62742 17.2706 2.29199 13.5551 2.28876Z" fill="url(#paint1_radial_1_88)"/>
</g>
<g filter="url(#filter2_f_1_88)">
<path d="M13.5425 2.27258C10.7465 2.27252 8.1651 3.16229 6.04974 4.66604C5.2643 5.22438 4.54353 5.86935 3.90172 6.58658C3.73358 8.19767 5.16036 10.1779 7.98582 10.1615C9.35672 8.53273 11.3842 7.47894 13.6409 7.47894C13.6429 7.47894 13.6449 7.47911 13.647 7.47912L13.5548 2.27295C13.5507 2.27295 13.5466 2.27258 13.5425 2.27258Z" fill="url(#paint2_radial_1_88)"/>
</g>
<g filter="url(#filter3_f_1_88)">
<path d="M22.7709 15.6686L20.2752 17.4197C20.1657 18.1064 19.9196 18.7819 19.5595 19.3979C19.147 20.1037 18.6369 20.641 18.1141 21.0502C16.5513 22.2733 14.7304 22.5251 13.4627 22.5262C12.1524 24.8055 11.9227 25.9471 13.5549 27.7867C15.5744 27.7852 17.3649 27.4128 18.9442 26.7156C20.0858 26.2115 21.0972 25.5541 22.013 24.7092C23.223 23.5928 24.1708 22.2118 24.8176 20.623C25.4644 19.0343 25.8103 17.2377 25.8103 15.2899L22.7709 15.6686Z" fill="url(#paint3_radial_1_88)"/>
</g>
<g filter="url(#filter4_f_1_88)">
<path d="M13.3707 12.4752V17.6962H25.3777C25.4833 16.9811 25.8326 16.0559 25.8326 15.2899C25.8326 14.3948 25.7446 13.3014 25.5953 12.4752H13.3707Z" fill="#3086FF"/>
</g>
<g filter="url(#filter5_f_1_88)">
<path d="M3.95911 6.40228C3.21815 7.23032 2.58514 8.15712 2.08325 9.15945C1.22218 10.8737 0.750702 12.9577 0.750702 15.0002C0.750702 15.0289 0.753034 15.0571 0.753222 15.0858C1.13456 15.8326 6.02076 15.6896 6.26704 15.0858C6.26673 15.0577 6.26362 15.0302 6.26362 15.002C6.26362 14.1642 6.40219 13.5467 6.65477 12.7894C6.96636 11.8551 7.45423 10.9949 8.07809 10.2537C8.21952 10.0692 8.59674 9.6728 8.70679 9.43501C8.74872 9.34443 8.63068 9.29359 8.62408 9.26171C8.6167 9.22605 8.45844 9.25473 8.42299 9.22817C8.31042 9.14383 8.0875 9.09979 7.95214 9.06065C7.66282 8.97697 7.18333 8.79245 6.91701 8.60118C6.07517 7.99657 4.7614 7.27436 3.95911 6.40228Z" fill="url(#paint4_radial_1_88)"/>
</g>
<g filter="url(#filter6_f_1_88)">
<path d="M6.93502 9.26523C8.88716 10.473 9.44856 8.65559 10.7465 8.08688L8.48872 3.30487C7.6582 3.6614 6.87352 4.10435 6.14546 4.6219C5.05817 5.39483 4.098 6.33801 3.30484 7.41138L6.93502 9.26523Z" fill="url(#paint5_radial_1_88)"/>
</g>
<g filter="url(#filter7_f_1_88)">
<path d="M7.72969 21.4658C5.1092 22.432 4.69895 22.4667 4.45773 24.1254C4.91869 24.5848 5.41394 25.0098 5.94023 25.3951C7.35243 26.4291 10.0689 27.8061 13.543 27.8061C13.547 27.8061 13.551 27.8057 13.555 27.8057V22.4341C13.5524 22.4341 13.5494 22.4343 13.5467 22.4343C12.2458 22.4343 11.2063 22.0853 10.1404 21.4784C9.87757 21.3288 9.40078 21.7306 9.1584 21.5509C8.82412 21.3032 8.01963 21.7644 7.72969 21.4658Z" fill="url(#paint6_radial_1_88)"/>
</g>
<g opacity="0.5" filter="url(#filter8_f_1_88)">
<path d="M12.0201 22.2651V27.7128C12.5062 27.771 13.012 27.8062 13.5427 27.8062C14.0747 27.8062 14.5894 27.7783 15.0895 27.727V22.3018C14.529 22.3997 14.0012 22.4345 13.5465 22.4345C13.0228 22.4345 12.5135 22.3722 12.0201 22.2651Z" fill="url(#paint7_linear_1_88)"/>
</g>
<defs>
<filter id="filter0_f_1_88" x="0.283003" y="14.6158" width="10.5369" height="9.83896" filterUnits="userSpaceOnUse" color-interpolation-filters="sRGB">
<feFlood flood-opacity="0" result="BackgroundImageFix"/>
<feBlend mode="normal" in="SourceGraphic" in2="BackgroundImageFix" result="shape"/>
<feGaussianBlur stdDeviation="0.23504" result="effect1_foregroundBlur_1_88"/>
</filter>
<filter id="filter1_f_1_88" x="12.7345" y="1.81868" width="9.83228" height="8.02793" filterUnits="userSpaceOnUse" color-interpolation-filters="sRGB">
<feFlood flood-opacity="0" result="BackgroundImageFix"/>
<feBlend mode="normal" in="SourceGraphic" in2="BackgroundImageFix" result="shape"/>
<feGaussianBlur stdDeviation="0.23504" result="effect1_foregroundBlur_1_88"/>
</filter>
<filter id="filter2_f_1_88" x="3.41832" y="1.8025" width="10.6988" height="8.82914" filterUnits="userSpaceOnUse" color-interpolation-filters="sRGB">
<feFlood flood-opacity="0" result="BackgroundImageFix"/>
<feBlend mode="normal" in="SourceGraphic" in2="BackgroundImageFix" result="shape"/>
<feGaussianBlur stdDeviation="0.23504" result="effect1_foregroundBlur_1_88"/>
</filter>
<filter id="filter3_f_1_88" x="11.9347" y="14.8198" width="14.3457" height="13.4369" filterUnits="userSpaceOnUse" color-interpolation-filters="sRGB">
<feFlood flood-opacity="0" result="BackgroundImageFix"/>
<feBlend mode="normal" in="SourceGraphic" in2="BackgroundImageFix" result="shape"/>
<feGaussianBlur stdDeviation="0.23504" result="effect1_foregroundBlur_1_88"/>
</filter>
<filter id="filter4_f_1_88" x="12.9006" y="12.0051" width="13.402" height="6.16111" filterUnits="userSpaceOnUse" color-interpolation-filters="sRGB">
<feFlood flood-opacity="0" result="BackgroundImageFix"/>
<feBlend mode="normal" in="SourceGraphic" in2="BackgroundImageFix" result="shape"/>
<feGaussianBlur stdDeviation="0.23504" result="effect1_foregroundBlur_1_88"/>
</filter>
<filter id="filter5_f_1_88" x="0.280623" y="5.9322" width="8.90525" height="10.1316" filterUnits="userSpaceOnUse" color-interpolation-filters="sRGB">
<feFlood flood-opacity="0" result="BackgroundImageFix"/>
<feBlend mode="normal" in="SourceGraphic" in2="BackgroundImageFix" result="shape"/>
<feGaussianBlur stdDeviation="0.23504" result="effect1_foregroundBlur_1_88"/>
</filter>
<filter id="filter6_f_1_88" x="-1.00136e-05" y="2.0504e-05" width="14.0513" height="12.976" filterUnits="userSpaceOnUse" color-interpolation-filters="sRGB">
<feFlood flood-opacity="0" result="BackgroundImageFix"/>
<feBlend mode="normal" in="SourceGraphic" in2="BackgroundImageFix" result="shape"/>
<feGaussianBlur stdDeviation="1.65243" result="effect1_foregroundBlur_1_88"/>
</filter>
<filter id="filter7_f_1_88" x="3.98765" y="20.9742" width="10.0374" height="7.30198" filterUnits="userSpaceOnUse" color-interpolation-filters="sRGB">
<feFlood flood-opacity="0" result="BackgroundImageFix"/>
<feBlend mode="normal" in="SourceGraphic" in2="BackgroundImageFix" result="shape"/>
<feGaussianBlur stdDeviation="0.23504" result="effect1_foregroundBlur_1_88"/>
</filter>
<filter id="filter8_f_1_88" x="11.55" y="21.795" width="4.00956" height="6.48136" filterUnits="userSpaceOnUse" color-interpolation-filters="sRGB">
<feFlood flood-opacity="0" result="BackgroundImageFix"/>
<feBlend mode="normal" in="SourceGraphic" in2="BackgroundImageFix" result="shape"/>
<feGaussianBlur stdDeviation="0.23504" result="effect1_foregroundBlur_1_88"/>
</filter>
<radialGradient id="paint0_radial_1_88" cx="0" cy="0" r="1" gradientUnits="userSpaceOnUse" gradientTransform="translate(10.2343 23.7953) rotate(-92.3395) scale(12.5806 18.4793)">
<stop offset="0.141612" stop-color="#1ABD4D"/>
<stop offset="0.247515" stop-color="#6EC30D"/>
<stop offset="0.311547" stop-color="#8AC502"/>
<stop offset="0.366013" stop-color="#A2C600"/>
<stop offset="0.445673" stop-color="#C8C903"/>
<stop offset="0.540305" stop-color="#EBCB03"/>
<stop offset="0.615636" stop-color="#F7CD07"/>
<stop offset="0.699345" stop-color="#FDCD04"/>
<stop offset="0.771242" stop-color="#FDCE05"/>
<stop offset="0.860566" stop-color="#FFCE0A"/>
</radialGradient>
<radialGradient id="paint1_radial_1_88" cx="0" cy="0" r="1" gradientTransform="matrix(8.72134 -2.14085e-05 -1.22582e-05 11.2631 21.7509 9.10895)" gradientUnits="userSpaceOnUse">
<stop offset="0.408458" stop-color="#FB4E5A"/>
<stop offset="1" stop-color="#FF4540"/>
</radialGradient>
<radialGradient id="paint2_radial_1_88" cx="0" cy="0" r="1" gradientUnits="userSpaceOnUse" gradientTransform="translate(16.9878 0.642203) rotate(151.02) scale(13.9682 18.9548)">
<stop offset="0.231273" stop-color="#FF4541"/>
<stop offset="0.311547" stop-color="#FF4540"/>
<stop offset="0.457516" stop-color="#FF4640"/>
<stop offset="0.540305" stop-color="#FF473F"/>
<stop offset="0.699346" stop-color="#FF5138"/>
<stop offset="0.771242" stop-color="#FF5B33"/>
<stop offset="0.860566" stop-color="#FF6C29"/>
<stop offset="1" stop-color="#FF8C18"/>
</radialGradient>
<radialGradient id="paint3_radial_1_88" cx="0" cy="0" r="1" gradientUnits="userSpaceOnUse" gradientTransform="translate(13.7365 26.1531) rotate(-127.454) scale(36.4397 13.4508)">
<stop offset="0.131546" stop-color="#0CBA65"/>
<stop offset="0.209784" stop-color="#0BB86D"/>
<stop offset="0.297297" stop-color="#09B479"/>
<stop offset="0.396257" stop-color="#08AD93"/>
<stop offset="0.477124" stop-color="#0AA6A9"/>
<stop offset="0.568425" stop-color="#0D9CC6"/>
<stop offset="0.667385" stop-color="#1893DD"/>
<stop offset="0.768727" stop-color="#258BF1"/>
<stop offset="0.858506" stop-color="#3086FF"/>
</radialGradient>
<radialGradient id="paint4_radial_1_88" cx="0" cy="0" r="1" gradientUnits="userSpaceOnUse" gradientTransform="translate(12.472 4.65656) rotate(96.6178) scale(13.6076 18.8148)">
<stop offset="0.366013" stop-color="#FF4E3A"/>
<stop offset="0.457516" stop-color="#FF8A1B"/>
<stop offset="0.540305" stop-color="#FFA312"/>
<stop offset="0.615636" stop-color="#FFB60C"/>
<stop offset="0.771242" stop-color="#FFCD0A"/>
<stop offset="0.860566" stop-color="#FECF0A"/>
<stop offset="0.915033" stop-color="#FECF08"/>
<stop offset="1" stop-color="#FDCD01"/>
</radialGradient>
<radialGradient id="paint5_radial_1_88" cx="0" cy="0" r="1" gradientUnits="userSpaceOnUse" gradientTransform="translate(10.2667 4.5163) rotate(132.119) scale(6.75876 19.0634)">
<stop offset="0.315904" stop-color="#FF4C3C"/>
<stop offset="0.603818" stop-color="#FF692C"/>
<stop offset="0.726837" stop-color="#FF7825"/>
<stop offset="0.884534" stop-color="#FF8D1B"/>
<stop offset="1" stop-color="#FF9F13"/>
</radialGradient>
<radialGradient id="paint6_radial_1_88" cx="0" cy="0" r="1" gradientUnits="userSpaceOnUse" gradientTransform="translate(16.988 29.3598) rotate(-151.02) scale(13.9682 18.9548)">
<stop offset="0.231273" stop-color="#0FBC5F"/>
<stop offset="0.311547" stop-color="#0FBC5F"/>
<stop offset="0.366013" stop-color="#0FBC5E"/>
<stop offset="0.457516" stop-color="#0FBC5D"/>
<stop offset="0.540305" stop-color="#12BC58"/>
<stop offset="0.699346" stop-color="#28BF3C"/>
<stop offset="0.771242" stop-color="#38C02B"/>
<stop offset="0.860566" stop-color="#52C218"/>
<stop offset="0.915033" stop-color="#67C30F"/>
<stop offset="1" stop-color="#86C504"/>
</radialGradient>
<linearGradient id="paint7_linear_1_88" x1="12.0201" y1="25.0357" x2="15.0895" y2="25.0357" gradientUnits="userSpaceOnUse">
<stop stop-color="#0FBC5C"/>
<stop offset="1" stop-color="#0CBA65"/>
</linearGradient>
</defs>
</svg>
