<svg width="32" height="32" viewBox="0 0 32 32" fill="none" xmlns="http://www.w3.org/2000/svg">
<rect width="32" height="32" rx="16" fill="#EFEFEF"/>
<path d="M8 16C8 15.45 8.19583 14.9792 8.5875 14.5875C8.97917 14.1958 9.45 14 10 14C10.55 14 11.0208 14.1958 11.4125 14.5875C11.8042 14.9792 12 15.45 12 16C12 16.55 11.8042 17.0208 11.4125 17.4125C11.0208 17.8042 10.55 18 10 18C9.45 18 8.97917 17.8042 8.5875 17.4125C8.19583 17.0208 8 16.55 8 16ZM14 16C14 15.45 14.1958 14.9792 14.5875 14.5875C14.9792 14.1958 15.45 14 16 14C16.55 14 17.0208 14.1958 17.4125 14.5875C17.8042 14.9792 18 15.45 18 16C18 16.55 17.8042 17.0208 17.4125 17.4125C17.0208 17.8042 16.55 18 16 18C15.45 18 14.9792 17.8042 14.5875 17.4125C14.1958 17.0208 14 16.55 14 16ZM20 16C20 15.45 20.1958 14.9792 20.5875 14.5875C20.9792 14.1958 21.45 14 22 14C22.55 14 23.0208 14.1958 23.4125 14.5875C23.8042 14.9792 24 15.45 24 16C24 16.55 23.8042 17.0208 23.4125 17.4125C23.0208 17.8042 22.55 18 22 18C21.45 18 20.9792 17.8042 20.5875 17.4125C20.1958 17.0208 20 16.55 20 16Z" fill="#888888"/>
</svg>
