<svg width="43" height="45" viewBox="0 0 43 45" fill="none" xmlns="http://www.w3.org/2000/svg">
<circle cx="21.5" cy="23.5" r="21.5" fill="#DFDFDF"/>
<mask id="mask0_505_628" style="mask-type:alpha" maskUnits="userSpaceOnUse" x="0" y="0" width="43" height="43">
<circle cx="21.5" cy="21.5" r="21.5" fill="white"/>
</mask>
<g mask="url(#mask0_505_628)">
<mask id="mask1_505_628" style="mask-type:alpha" maskUnits="userSpaceOnUse" x="-2" y="4" width="48" height="47">
<rect x="-1.5" y="4" width="47" height="47" fill="white"/>
</mask>
<g mask="url(#mask1_505_628)">
<path d="M16.4674 25.1986C14.9334 23.6646 14.1663 21.8205 14.1663 19.6663C14.1663 17.5122 14.9334 15.6681 16.4674 14.134C18.0014 12.6 19.8455 11.833 21.9997 11.833C24.1538 11.833 25.9979 12.6 27.532 14.134C29.066 15.6681 29.833 17.5122 29.833 19.6663C29.833 21.8205 29.066 23.6646 27.532 25.1986C25.9979 26.7327 24.1538 27.4997 21.9997 27.4997C19.8455 27.4997 18.0014 26.7327 16.4674 25.1986ZM6.33301 43.1663V37.683C6.33301 36.5733 6.6186 35.5533 7.18978 34.6231C7.76096 33.6929 8.51981 32.983 9.46634 32.4934C11.49 31.4816 13.5462 30.7228 15.6351 30.2169C17.724 29.711 19.8455 29.458 21.9997 29.458C24.1538 29.458 26.2754 29.711 28.3643 30.2169C30.4531 30.7228 32.5094 31.4816 34.533 32.4934C35.4795 32.983 36.2384 33.6929 36.8096 34.6231C37.3808 35.5533 37.6663 36.5733 37.6663 37.683V43.1663H6.33301Z" fill="white"/>
</g>
</g>
</svg>
