<svg width="125" height="112" viewBox="0 0 125 112" fill="none" xmlns="http://www.w3.org/2000/svg">
<g clip-path="url(#clip0_1_209)">
<path d="M27.2978 59.4734C27.2978 60.9684 26.8382 62.2811 25.9007 63.3933C24.9632 64.5055 23.5662 65.0524 21.6912 65.0524C20 65.0524 18.6397 64.5419 17.6103 63.5209C16.5809 62.4999 16.0662 61.1507 16.0662 59.4734V56.6839C16.0662 54.2043 14.9081 52.9645 12.5919 52.9645H5.49632C3.62132 52.9645 2.24265 52.4358 1.34191 51.3783C0.441176 50.3209 0 49.1722 0 47.9324C0 46.4374 0.514706 45.1976 1.54412 44.2131C2.57353 43.2468 3.87868 42.7545 5.49632 42.7545H42.5735C44.2647 42.7545 45.625 43.2468 46.6544 44.2131C47.6838 45.1794 48.1985 46.4192 48.1985 47.9324C48.1985 49.1722 47.739 50.3209 46.8015 51.3783C45.864 52.4358 44.4669 52.9645 42.5919 52.9645H30.8088C28.4926 52.9645 27.3346 54.2408 27.3346 56.8115V59.4734H27.2978ZM5.625 18.9798C5.625 15.6251 6.45221 12.6533 8.10662 10.0825C9.76103 7.5118 11.9669 5.50627 14.7243 4.0477C17.4816 2.58913 20.5147 1.85984 23.8235 1.85984C27.1324 1.85984 30.1654 2.58913 32.9228 4.0477C35.6801 5.50627 37.9228 7.53004 39.614 10.0825C41.3051 12.6533 42.1507 15.6069 42.1507 18.9798C42.1507 22.3528 41.3051 25.4705 39.614 28.0776C37.9228 30.6848 35.6801 32.7268 32.9228 34.1854C30.1654 35.644 27.114 36.3733 23.8235 36.3733C20.5331 36.3733 17.4816 35.644 14.7243 34.1854C11.9669 32.7268 9.74265 30.6848 8.10662 28.0776C6.45221 25.4705 5.625 22.4439 5.625 18.9798ZM16.8566 18.9798C16.8566 21.0947 17.5551 22.7539 18.9338 23.9572C20.3125 25.1605 21.9485 25.7439 23.8235 25.7439C25.8824 25.7439 27.5735 25.1423 28.9154 23.9572C30.2574 22.7539 30.9191 21.0947 30.9191 18.9798C30.9191 16.8649 30.2574 15.3334 28.9154 14.1301C27.5735 12.945 25.8824 12.3433 23.8235 12.3433C21.9485 12.3433 20.3125 12.945 18.9338 14.1301C17.5551 15.3334 16.8566 16.9378 16.8566 18.9798ZM64.2463 40.749C64.2463 42.4263 63.7316 43.7937 62.7022 44.8694C61.6728 45.9269 60.3676 46.4556 58.75 46.4556C57.1324 46.4556 55.7537 45.9269 54.5956 44.8694C53.4375 43.812 52.8493 42.4446 52.8493 40.749V5.5792C52.8493 5.14162 52.9963 4.5035 53.3088 3.64659C53.6213 2.80791 54.1912 1.98747 55.0551 1.18525C55.9007 0.383038 57.1324 -0.0180693 58.7316 -0.0180693C60.4228 -0.0180693 61.7647 0.49243 62.739 1.51343C63.7132 2.53443 64.2096 3.88361 64.2096 5.56096V40.7307L64.2463 40.749Z" fill="#70534F"/>
<path d="M100.57 99.6204C99.3382 99.8209 98.4927 99.9486 98.4927 99.9486C96.5257 99.9486 95.3493 99.5475 94.9449 98.7452C94.5404 97.943 94.3382 97.1043 94.3382 96.2292V95.1717C94.3382 94.3695 94.5404 93.622 94.9449 92.911C95.3493 92.1999 96.3971 91.8535 98.0882 91.8535H107.188C109.504 91.8535 111.507 91.1242 113.217 89.6656C114.908 88.2071 115.754 86.238 115.754 83.7584V71.4153C115.754 68.6804 114.982 66.6202 113.419 65.2346C111.857 63.8672 109.779 63.1743 107.188 63.1743H103.971C104.779 62.208 105.184 60.9683 105.184 59.455V56.7931C105.184 54.2224 106.342 52.9461 108.658 52.9461H118.162C120.037 52.9461 121.434 52.4174 122.371 51.3599C123.309 50.3025 123.768 49.1538 123.768 47.914C123.768 46.419 123.254 45.1792 122.224 44.1947C121.195 43.2284 119.835 42.7361 118.143 42.7361H81.0662C79.4669 42.7361 78.1434 43.2284 77.114 44.1947C76.0846 45.161 75.5699 46.4008 75.5699 47.914C75.5699 49.1538 76.011 50.3025 76.9118 51.3599C77.7941 52.4174 79.1912 52.9461 81.0662 52.9461H90.4412C92.7574 52.9461 93.9154 54.1859 93.9154 56.6655V59.455C93.9154 60.95 94.3199 62.1898 95.1287 63.1743H88.8419C87.2427 63.1743 85.9007 63.6301 84.8346 64.56C83.7684 65.4898 83.2353 66.7478 83.2353 68.334C83.2353 70.0114 83.7684 71.3241 84.8346 72.2539C85.9007 73.1838 87.2427 73.6396 88.8419 73.6396H100.221C102.188 73.6396 103.401 74.0407 103.897 74.8429C104.393 75.6451 104.632 76.4291 104.632 77.2313V78.2888C104.632 78.9998 104.357 79.6744 103.824 80.349C103.29 81.0054 102.224 81.3518 100.607 81.3518H91.9118C89.4118 81.3518 87.2794 82.154 85.4963 83.7402C83.7132 85.3264 82.8125 87.4049 82.8125 89.9756V102.191C82.8125 104.671 83.6581 106.713 85.3493 108.299C87.0404 109.885 89.0441 110.687 91.3787 110.687C91.3787 110.687 95.5699 111.088 100.57 111.453C101.82 105.746 100.993 101.334 100.551 99.6021L100.57 99.6204Z" fill="#70534F"/>
<path d="M86.7279 15.4062H100.919C102.518 15.4062 103.768 15.8984 104.669 16.8647C105.551 17.831 106.011 19.162 106.011 20.8393V32.6538C106.011 34.167 106.526 35.4433 107.555 36.5007C108.585 37.5582 109.853 38.0869 111.379 38.0869C112.978 38.0869 114.338 37.5582 115.46 36.5007C116.581 35.4433 117.132 34.1488 117.132 32.6538V13.1454C117.132 10.3194 116.305 8.20446 114.651 6.83705C112.996 5.46964 111.011 4.77682 108.695 4.77682H86.7463C85.0551 4.77682 83.6765 5.23262 82.5919 6.16246C81.5257 7.0923 80.9926 8.40501 80.9926 10.0824C80.9926 11.6686 81.5257 12.963 82.5919 13.9293C83.6581 14.8957 85.0368 15.3879 86.7463 15.3879L86.7279 15.4062Z" fill="#70534F"/>
<path d="M123.051 101.188C122.445 100.641 121.82 100.186 121.158 99.7845C121.618 104.051 121.654 107.424 121.507 109.976C123.033 109.156 123.787 108.39 123.787 108.39C123.787 108.39 126.949 104.78 123.051 101.188Z" fill="#70534F"/>
<path d="M117.757 98.3441C115.699 97.7972 113.713 97.7425 112.243 97.8519C113.456 104.798 113.143 109.429 112.702 111.982C112.868 111.982 113.051 111.982 113.199 111.982C115.018 111.945 116.581 111.708 117.923 111.362C118.603 105.528 118.143 100.86 117.757 98.3259V98.3441Z" fill="#70534F"/>
<path d="M100.588 111.471C102.335 111.581 107.555 111.891 109.191 111.945C110.349 105.199 109.43 100.076 109.007 98.3077C107.482 98.5447 102.353 99.3469 100.57 99.6204C101.875 106.093 100.11 109.356 100.588 111.471Z" fill="#70534F"/>
</g>
<defs>
<clipPath id="clip0_1_209">
<rect width="125" height="112" fill="white"/>
</clipPath>
</defs>
</svg>
