write<svg width="72" height="72" viewBox="0 0 72 72" fill="none" xmlns="http://www.w3.org/2000/svg">
<rect width="72" height="72" rx="36" fill="#89ADC4"/>
<path d="M45.9921 19.5324L31.5944 33.9301C31.4611 34.0634 31.4611 34.0634 31.3278 34.0634L27.995 35.2632L25.862 35.9298C25.3288 36.1964 24.7955 35.6631 25.0621 34.9966L26.7952 29.6641C26.7952 29.5308 26.9285 29.3975 26.9285 29.3975L41.4595 14.9998C42.7926 13.6667 44.7923 13.6667 46.1254 14.9998C47.3252 16.1996 47.3252 18.3326 45.9921 19.5324Z" stroke="#555555" stroke-width="2.3" stroke-miterlimit="10" stroke-linecap="round" stroke-linejoin="round"/>
<path d="M39.1924 17.2666L43.725 21.7992" stroke="#555555" stroke-width="2.3" stroke-miterlimit="10" stroke-linecap="round" stroke-linejoin="round"/>
<path d="M29.291 43.8945V44.5977C29.291 45.2949 29.291 46.1621 29.0801 47.2695H30.4746V48.3008H20.7949V47.2695H27.7676C27.9551 46.3086 27.9844 45.5527 27.9902 44.9258H21.9902V43.8945H29.291ZM29.2793 49.1445V52.0156H23.2207V52.918H29.5488V53.9375H21.9199V51.0195H27.9785V50.1641H21.9082V49.1445H29.2793ZM34.5293 45.5117C34.5293 46.5137 34.957 47.709 35.9941 48.4297C37.0195 47.7207 37.4473 46.543 37.4473 45.5117V44.2461H38.7598V45.5117C38.7598 46.7891 39.3809 48.1016 40.8223 48.6992L40.1191 49.6719C39.1172 49.2441 38.4609 48.4531 38.1035 47.4922C37.7285 48.4941 37.0547 49.3555 35.9824 49.8125C34.9043 49.3555 34.2246 48.4766 33.8613 47.4805C33.4922 48.4238 32.8301 49.2324 31.8457 49.6719L31.166 48.6992C32.5723 48.0781 33.2168 46.7188 33.2285 45.5117V44.2461H34.5293V45.5117ZM40.8223 51.6172V52.6836H31.166V51.6172H40.8223ZM50.3848 43.4492V54.043H49.0723V43.4492H50.3848ZM47.2207 44.5742C47.2207 47.7266 46.002 50.4102 42.2871 52.168L41.6074 51.125C44.3789 49.8066 45.668 48.0137 45.8965 45.6055H42.1465V44.5742H47.2207Z" fill="#555555"/>
</svg>
